<svg xmlns:xlink="http://www.w3.org/1999/xlink" xmlns="http://www.w3.org/2000/svg" width="24" height="24" viewBox="0 0 24 24" fill="none">
<path d="M12 24C18.6274 24 24 18.6274 24 12C24 5.37258 18.6274 0 12 0C5.37258 0 0 5.37258 0 12C0 18.6274 5.37258 24 12 24Z" fill="#0052B4"/>
<path d="M12.0004 4.69562L12.3889 5.89135H13.6461L12.629 6.63034L13.0175 7.82607L12.0004 7.08704L10.9832 7.82607L11.3718 6.63034L10.3546 5.89135H11.6118L12.0004 4.69562Z" fill="#FFDA44"/>
<path d="M6.83511 6.83491L7.95542 7.40566L8.84441 6.51672L8.64767 7.75844L9.76794 8.32924L8.52617 8.52593L8.32948 9.76774L7.75869 8.64747L6.51697 8.84421L7.40595 7.95522L6.83511 6.83491Z" fill="#FFDA44"/>
<path d="M4.69592 12L5.89166 11.6114V10.3542L6.63059 11.3714L7.82638 10.9828L7.0873 12L7.82638 13.0171L6.63059 12.6286L5.89166 13.6457V12.3885L4.69592 12Z" fill="#FFDA44"/>
<path d="M6.83511 17.165L7.40591 16.0446L6.51697 15.1557L7.75873 15.3524L8.32944 14.2322L8.52617 15.4739L9.76789 15.6706L8.64776 16.2414L8.84441 17.4831L7.95542 16.5942L6.83511 17.165Z" fill="#FFDA44"/>
<path d="M12.0004 19.3044L11.6118 18.1086H10.3546L11.3718 17.3697L10.9832 16.174L12.0004 16.9129L13.0175 16.174L12.629 17.3697L13.6461 18.1086H12.3889L12.0004 19.3044Z" fill="#FFDA44"/>
<path d="M17.1654 17.165L16.0451 16.5942L15.1561 17.4832L15.3528 16.2414L14.2327 15.6706L15.4744 15.4739L15.6711 14.2322L16.2418 15.3524L17.4835 15.1557L16.5946 16.0447L17.1654 17.165Z" fill="#FFDA44"/>
<path d="M19.3047 12L18.1089 12.3885V13.6457L17.37 12.6286L16.1743 13.0171L16.9133 12L16.1743 10.9828L17.37 11.3714L18.1089 10.3542V11.6115L19.3047 12Z" fill="#FFDA44"/>
<path d="M17.1654 6.83499L16.5946 7.9553L17.4836 8.84428L16.2418 8.6475L15.6711 9.76777L15.4744 8.526L14.2327 8.32927L15.3528 7.75852L15.1561 6.51685L16.0452 7.40578L17.1654 6.83499Z" fill="#FFDA44"/>
</svg>