<svg xmlns:xlink="http://www.w3.org/1999/xlink" xmlns="http://www.w3.org/2000/svg" width="24" height="24" viewBox="0 0 24 24" fill="none">
<path d="M12 24C18.6274 24 24 18.6274 24 12C24 5.37258 18.6274 0 12 0C5.37258 0 0 5.37258 0 12C0 18.6274 5.37258 24 12 24Z" fill="#F0F0F0"/>
<path d="M2.48069 4.69415C1.53808 5.92054 0.827312 7.33406 0.413452 8.86964H6.65617L2.48069 4.69415Z" fill="#0052B4"/>
<path d="M23.5867 8.86959C23.1729 7.33406 22.4621 5.92054 21.5195 4.69415L17.3441 8.86959H23.5867Z" fill="#0052B4"/>
<path d="M0.413452 15.1305C0.827358 16.666 1.53812 18.0795 2.48069 19.3059L6.65603 15.1305H0.413452Z" fill="#0052B4"/>
<path d="M19.3059 2.48061C18.0795 1.538 16.6661 0.827236 15.1305 0.41333V6.656L19.3059 2.48061Z" fill="#0052B4"/>
<path d="M4.69421 21.5193C5.9206 22.4619 7.33412 23.1727 8.86965 23.5866V17.344L4.69421 21.5193Z" fill="#0052B4"/>
<path d="M8.8696 0.41333C7.33407 0.827236 5.92056 1.538 4.69421 2.48056L8.8696 6.65596V0.41333Z" fill="#0052B4"/>
<path d="M15.1305 23.5866C16.666 23.1727 18.0795 22.4619 19.3059 21.5194L15.1305 17.344V23.5866Z" fill="#0052B4"/>
<path d="M17.3441 15.1305L21.5195 19.3059C22.4621 18.0796 23.1729 16.666 23.5867 15.1305H17.3441Z" fill="#0052B4"/>
<path d="M23.8984 10.4348H13.5653H13.5653V0.101578C13.0529 0.034875 12.5305 0 12 0C11.4694 0 10.9471 0.034875 10.4348 0.101578V10.4347V10.4347H0.101578C0.034875 10.9471 0 11.4695 0 12C0 12.5306 0.034875 13.0529 0.101578 13.5652H10.4347H10.4347V23.8984C10.9471 23.9651 11.4694 24 12 24C12.5305 24 13.0529 23.9652 13.5652 23.8984V13.5653V13.5653H23.8984C23.9651 13.0529 24 12.5306 24 12C24 11.4695 23.9651 10.9471 23.8984 10.4348Z" fill="#D80027"/>
<path d="M15.1306 15.1303L20.4854 20.4851C20.7317 20.2389 20.9666 19.9815 21.1908 19.7147L16.6063 15.1302H15.1306V15.1303Z" fill="#D80027"/>
<path d="M8.86963 15.1306H8.86954L3.51477 20.4853C3.76096 20.7316 4.01835 20.9665 4.28516 21.1907L8.86963 16.6061V15.1306Z" fill="#D80027"/>
<path d="M8.86964 8.86948V8.86939L3.51482 3.51453C3.26854 3.76071 3.0336 4.0181 2.80945 4.28492L7.39396 8.86943H8.86964V8.86948Z" fill="#D80027"/>
<path d="M15.1306 8.86956L20.4855 3.51465C20.2393 3.26837 19.9819 3.03344 19.7151 2.80933L15.1306 7.39384V8.86956Z" fill="#D80027"/>
</svg>