<svg width="199" height="215" viewBox="0 0 199 215" fill="none" xmlns="http://www.w3.org/2000/svg">
<path fill-rule="evenodd" clip-rule="evenodd" d="M30 0C13.4315 0 0 13.4315 0 30V95.8479V161.696C0 178.264 13.4315 191.696 30 191.696H95.472V191.695C95.5973 191.696 95.7226 191.696 95.8479 191.696C148.783 191.696 191.696 148.783 191.696 95.8479C191.696 42.9126 148.783 0 95.8479 0C95.7226 0 95.5973 0.000240611 95.472 0.000721397V0H30Z" fill="#EE6EA3"/>
<path fill-rule="evenodd" clip-rule="evenodd" d="M8.66937 195.54C14.8432 199.439 22.1581 201.696 30 201.696H105.472V201.264C150.569 197.2 187.51 164.849 198.417 122.091C196.864 173.667 154.566 215 102.614 215C102.488 215 102.363 215 102.238 214.999V215H36.7657C23.9061 215 12.9363 206.909 8.66937 195.54ZM190.544 80.9468C175.785 47.0237 141.969 23.3042 102.614 23.3042C102.488 23.3042 102.363 23.3044 102.238 23.3049V23.3042H36.7656C20.1971 23.3042 6.76562 36.7357 6.76562 53.3042V119.152V180.675C12.2671 187.402 20.6322 191.696 30 191.696L95.472 191.695C95.5973 191.696 95.7226 191.696 95.8479 191.696C95.9729 191.696 96.0978 191.696 96.2227 191.695C148.986 191.493 191.696 148.658 191.696 95.8479C191.696 90.7794 191.302 85.8027 190.544 80.9468Z" fill="#EE6EA3"/>
</svg>
